<svg width="48" height="48" viewBox="0 0 48 48" fill="none" xmlns="http://www.w3.org/2000/svg">
<rect width="48" height="48" rx="5" fill="#980CBC"/>
<path d="M36.336 16.928C36.336 18.7413 35.8667 20.4053 34.928 21.92C33.9893 23.4347 32.624 24.672 30.832 25.632C29.04 26.592 26.9067 27.1573 24.432 27.328L23.056 35.04C22.5227 38.0053 21.072 39.488 18.704 39.488C17.4027 39.488 16.1973 39.104 15.088 38.336C14 37.568 13.1253 36.3947 12.464 34.816C11.8027 33.2373 11.472 31.296 11.472 28.992C11.472 24.6613 12.1653 20.992 13.552 17.984C14.96 14.9547 16.8373 12.6933 19.184 11.2C21.552 9.68533 24.1547 8.928 26.992 8.928C28.9973 8.928 30.6933 9.28 32.08 9.984C33.488 10.688 34.544 11.648 35.248 12.864C35.9733 14.0587 36.336 15.4133 36.336 16.928ZM25.008 24.032C29.3813 23.4773 31.568 21.2053 31.568 17.216C31.568 15.808 31.0987 14.6667 30.16 13.792C29.2427 12.896 27.8133 12.448 25.872 12.448C23.6747 12.448 21.7547 13.1413 20.112 14.528C18.4907 15.9147 17.232 17.8453 16.336 20.32C15.4613 22.7733 15.024 25.5787 15.024 28.736C15.024 30.0587 15.152 31.232 15.408 32.256C15.6853 33.28 16.0267 34.08 16.432 34.656C16.8587 35.2107 17.264 35.488 17.648 35.488C18.1813 35.488 18.5867 34.752 18.864 33.28L19.92 27.232C19.088 27.104 18.7253 27.0507 18.832 27.072C18.192 26.9653 17.776 26.7733 17.584 26.496C17.392 26.1973 17.296 25.824 17.296 25.376C17.296 24.9067 17.424 24.5333 17.68 24.256C17.9573 23.9787 18.3307 23.84 18.8 23.84C19.0133 23.84 19.1733 23.8507 19.28 23.872C19.792 23.9573 20.1867 24.0107 20.464 24.032C20.7413 22.368 21.136 20.1387 21.648 17.344C21.776 16.6187 22.064 16.1067 22.512 15.808C22.9813 15.488 23.5253 15.328 24.144 15.328C24.848 15.328 25.3493 15.4667 25.648 15.744C25.968 16 26.128 16.416 26.128 16.992C26.128 17.3333 26.1067 17.6107 26.064 17.824L25.008 24.032Z" fill="white"/>
</svg>
