<svg width="48" height="48" viewBox="0 0 48 48" fill="none" xmlns="http://www.w3.org/2000/svg">
<rect width="48" height="48" rx="5" fill="#430453"/>
<path d="M14.9308 38.0499C14.8839 38.076 14.812 38.0792 14.715 38.0595C14.6191 38.0637 14.5456 38.031 14.4944 37.9612C14.4172 37.8445 14.3279 37.7283 14.2267 37.6127C14.1495 37.496 14.0842 37.3788 14.0309 37.2611C13.9526 37.1204 13.8983 36.9787 13.8679 36.8359C13.8375 36.6931 13.8077 36.5623 13.7784 36.4435C13.7177 36.1579 13.6455 35.8848 13.5618 35.6243C13.5022 35.3626 13.4665 35.1 13.4548 34.8362C13.4452 34.6204 13.4476 34.4041 13.462 34.1873C13.4764 33.9704 13.4913 33.7656 13.5067 33.5727C13.5243 33.4278 13.5315 33.3193 13.5283 33.2474C13.5406 32.9826 13.5534 32.7298 13.5667 32.489C13.579 32.2241 13.6038 31.9708 13.6411 31.7289C13.6773 31.463 13.7141 31.2092 13.7514 30.9673C13.7887 30.7254 13.8254 30.4715 13.8617 30.2056C13.9123 29.7229 13.9264 29.2298 13.9041 28.7263C13.8817 28.2228 13.8839 27.7302 13.9105 27.2485C13.9084 27.2006 13.9167 27.1161 13.9353 26.9952C13.9508 26.8023 13.9548 26.622 13.9473 26.4541C13.9628 26.2612 13.9542 26.0694 13.9217 25.8787C13.9132 25.6869 13.8807 25.4961 13.8243 25.3064C13.7678 25.1168 13.7353 24.926 13.7268 24.7342C13.7183 24.5424 13.7097 24.3506 13.7012 24.1588C13.7167 23.9659 13.7321 23.773 13.7476 23.5802C13.7652 23.4352 13.7708 23.2908 13.7644 23.147C13.782 23.0021 13.7881 22.8697 13.7828 22.7498C13.7774 22.6299 13.7727 22.522 13.7684 22.4261C13.7631 22.3062 13.7577 22.1863 13.7524 22.0664C13.7471 21.9466 13.7418 21.8267 13.7364 21.7068C13.7301 21.5629 13.7242 21.4311 13.7189 21.3112C13.7258 20.9265 13.7573 20.5527 13.8132 20.1899C13.8931 19.826 13.9611 19.4626 14.017 19.0998C14.073 18.7369 14.105 18.3752 14.113 18.0145C14.121 17.6537 14.117 17.2936 14.101 16.9339C14.084 16.5503 14.055 16.1672 14.0139 15.7847C13.9729 15.4021 13.9319 15.0195 13.8909 14.637C13.8866 14.5411 13.8704 14.4457 13.8422 14.3509C13.8368 14.231 13.8315 14.1111 13.8262 13.9912C13.8001 13.9443 13.7849 13.8729 13.7806 13.777C13.7449 13.5144 13.7212 13.2511 13.7095 12.9874C13.7218 12.7226 13.7945 12.4671 13.9277 12.221C13.9943 12.0979 14.086 11.9977 14.2027 11.9205C14.3193 11.8432 14.4366 11.778 14.5543 11.7247C14.6481 11.6725 14.7429 11.6442 14.8388 11.64C14.9347 11.6357 15.0301 11.6195 15.125 11.5912C15.3157 11.5587 15.4945 11.5268 15.6612 11.4953C15.852 11.4628 16.0427 11.4303 16.2335 11.3978C16.8078 11.3483 17.3827 11.3108 17.9582 11.2852C18.5576 11.2586 19.1586 11.2679 19.7612 11.3132C20.2189 11.3409 20.6782 11.4046 21.139 11.5043C21.5999 11.6039 22.0722 11.6911 22.556 11.7657C23.0409 11.8642 23.5257 11.9628 24.0106 12.0614C24.5183 12.135 25.025 12.1845 25.5307 12.2101C26.0613 12.2586 26.567 12.2842 27.0476 12.2869C27.1435 12.2826 27.2274 12.2789 27.2993 12.2757C27.3952 12.2714 27.4791 12.2677 27.5511 12.2645C27.7429 12.256 27.9227 12.248 28.0905 12.2405C28.2584 12.2331 28.4387 12.2371 28.6316 12.2526C28.9934 12.2845 29.3453 12.365 29.6874 12.4939C30.0284 12.5989 30.3813 12.7034 30.7463 12.8073C31.0393 12.9144 31.3438 13.0089 31.6598 13.091C31.9987 13.148 32.3151 13.2421 32.6093 13.3732C32.6103 13.3971 32.6108 13.4091 32.6108 13.4091C33.2555 13.861 33.8696 14.4343 34.453 15.1291C35.0364 15.8239 35.5228 16.499 35.9123 17.1543C35.9373 17.1772 35.9498 17.1887 35.9498 17.1887C36.2152 17.7535 36.4221 18.3569 36.5708 18.9989C36.7434 19.6399 36.8316 20.2726 36.8353 20.897C36.8587 21.4245 36.7431 22.0663 36.4884 22.8223C36.2566 23.5533 35.9523 24.2756 35.5756 24.989C35.2218 25.6774 34.8616 26.2219 34.495 26.6225C34.1023 26.9763 33.6841 27.2952 33.2402 27.5792C32.7964 27.8631 32.352 28.1351 31.9071 28.3951C31.532 28.604 31.1569 28.8128 30.7818 29.0217C30.4056 29.2065 30.0039 29.3565 29.5766 29.4716C29.34 29.5542 29.1024 29.6128 28.8637 29.6474C28.6239 29.658 28.3842 29.6687 28.1444 29.6793C27.6899 29.7235 27.2344 29.7438 26.7777 29.74C26.3211 29.7363 25.864 29.7206 25.4063 29.6928C25.2624 29.6992 25.1546 29.704 25.0826 29.7072C24.8418 29.6939 24.6015 29.6926 24.3617 29.7032C24.1209 29.6899 23.8801 29.6766 23.6392 29.6632C23.6414 29.7112 23.6446 29.7831 23.6488 29.879C23.6531 29.9749 23.6443 30.0474 23.6225 30.0964C23.5436 30.4843 23.5018 30.8945 23.4969 31.3272C23.4538 31.9777 23.4596 32.6501 23.5145 33.3444C23.5693 34.0386 23.6351 34.7084 23.7118 35.3536C23.7139 35.4016 23.7166 35.4615 23.7198 35.5334C23.7219 35.5814 23.7376 35.6648 23.767 35.7836C23.7776 36.0233 23.7882 36.2631 23.7989 36.5029C23.8085 36.7187 23.7461 36.9376 23.6119 37.1598C23.5213 37.284 23.4171 37.3727 23.2994 37.426C23.1827 37.5032 23.0655 37.5685 22.9477 37.6217C22.8539 37.674 22.7111 37.7043 22.5193 37.7128C22.4714 37.715 22.4234 37.7171 22.3755 37.7192C22.0409 37.7581 21.6698 37.7866 21.2622 37.8047C20.6377 37.8084 20.0007 37.8007 19.3513 37.7815C18.7257 37.7612 18.1111 37.7165 17.5075 37.6472C17.2176 37.612 16.9273 37.5648 16.6363 37.5057C16.3454 37.4465 16.0551 37.3994 15.7652 37.3642L14.9308 38.0499ZM14.7678 37.6247L15.5678 36.9766C15.5907 36.9515 15.6142 36.9385 15.6381 36.9374C15.6621 36.9364 15.6741 36.9358 15.6741 36.9358C15.9879 36.9699 16.3023 37.016 16.6172 37.0741C16.9321 37.1322 17.2464 37.1783 17.5602 37.2124C18.1639 37.2817 18.7785 37.3265 19.404 37.3467C20.0295 37.367 20.6425 37.3758 21.243 37.3731C21.6506 37.355 22.0097 37.3271 22.3203 37.2893C22.3443 37.2882 22.3923 37.2861 22.4642 37.2829C22.6081 37.2765 22.7154 37.2597 22.7863 37.2325C22.8571 37.2054 22.9395 37.1657 23.0332 37.1135C23.127 37.0612 23.1963 36.9981 23.241 36.924C23.3306 36.7759 23.3711 36.606 23.3625 36.4142C23.354 36.2223 23.3455 36.0305 23.337 35.8387C23.3077 35.7199 23.292 35.6365 23.2898 35.5886C23.2888 35.5646 23.2877 35.5406 23.2866 35.5166C23.2856 35.4927 23.2845 35.4687 23.2834 35.4447C23.2057 34.7755 23.1394 34.0938 23.0845 33.3995C23.0286 32.6813 23.0217 31.9849 23.0638 31.3104C23.0915 30.8527 23.1442 30.4179 23.2221 30.0061C23.2199 29.9581 23.2162 29.8742 23.2109 29.7543C23.2306 29.6574 23.2388 29.5729 23.2357 29.501C23.2554 29.404 23.3121 29.3294 23.4059 29.2772C23.4059 29.2772 23.4173 29.2647 23.4403 29.2396C23.4642 29.2386 23.4762 29.238 23.4762 29.238C23.74 29.2263 24.0042 29.2266 24.269 29.2389C24.5578 29.2501 24.8346 29.2618 25.0994 29.274C25.1713 29.2709 25.2792 29.2661 25.4231 29.2597C25.8568 29.2885 26.302 29.3047 26.7586 29.3085C27.2152 29.3122 27.6588 29.2925 28.0893 29.2494C28.329 29.2387 28.5568 29.2286 28.7726 29.219C29.0113 29.1844 29.2489 29.1258 29.4855 29.0432C29.8649 28.9303 30.2306 28.7819 30.5828 28.5981C30.959 28.4132 31.3226 28.2169 31.6738 28.0091C32.1197 27.7731 32.5532 27.5256 32.9741 27.2667C33.4179 26.9827 33.8242 26.6643 34.1929 26.3116C34.5126 25.9371 34.8499 25.4176 35.2048 24.7532C35.5596 24.0888 35.8535 23.4031 36.0864 22.6961C36.3192 21.989 36.4245 21.3838 36.4021 20.8803C36.4005 20.3038 36.3139 19.707 36.1424 19.09C35.9948 18.472 35.8014 17.904 35.5622 17.3861C35.1728 16.7307 34.6994 16.0791 34.1421 15.4312C33.5837 14.7593 32.9947 14.2089 32.3751 13.7799C32.1039 13.6238 31.8108 13.5167 31.4959 13.4586C31.205 13.3995 30.9136 13.3284 30.6216 13.2452C30.2806 13.1403 29.9396 13.0353 29.5986 12.9303C29.2806 12.8003 28.9406 12.7193 28.5789 12.6873C28.41 12.6708 28.2416 12.6663 28.0737 12.6737C27.9059 12.6812 27.7381 12.6886 27.5702 12.6961C27.4983 12.6993 27.4144 12.703 27.3185 12.7073C27.2466 12.7105 27.1626 12.7142 27.0667 12.7184C26.5622 12.7168 26.0326 12.6923 25.4779 12.6449C24.9712 12.5953 24.464 12.5338 23.9562 12.4602C23.4714 12.3616 22.9751 12.2756 22.4673 12.202C22.0075 12.1264 21.5471 12.0387 21.0863 11.939C20.6254 11.8394 20.1661 11.7757 19.7084 11.748C19.1538 11.7006 18.5887 11.6896 18.0133 11.7152C17.4379 11.7407 16.863 11.7783 16.2886 11.8278C16.0979 11.8603 15.9071 11.8928 15.7164 11.9253C15.5496 11.9567 15.3828 11.9882 15.2161 12.0196C15.1202 12.0239 15.0368 12.0396 14.9659 12.0667C14.894 12.0699 14.8226 12.0851 14.7517 12.1123C14.6569 12.1405 14.5626 12.1808 14.4688 12.233C14.399 12.2841 14.3417 12.3467 14.297 12.4208C14.1856 12.6179 14.1347 12.8244 14.1443 13.0402C14.1539 13.256 14.1754 13.4712 14.209 13.6859C14.2143 13.8058 14.23 13.8892 14.2562 13.9361C14.2615 14.056 14.2668 14.1758 14.2721 14.2957C14.3004 14.3906 14.3166 14.4859 14.3209 14.5818C14.3619 14.9644 14.4029 15.347 14.4439 15.7295C14.4849 16.1121 14.5145 16.5072 14.5326 16.9148C14.5486 17.2744 14.5531 17.6466 14.5462 18.0313C14.5381 18.392 14.5067 18.7657 14.4518 19.1525C14.3959 19.5154 14.3279 19.8788 14.248 20.2427C14.191 20.5815 14.159 20.9433 14.152 21.328C14.1574 21.4479 14.1632 21.5797 14.1696 21.7236C14.1749 21.8435 14.1803 21.9634 14.1856 22.0832C14.1899 22.1791 14.1946 22.287 14.2 22.4069C14.2042 22.5028 14.209 22.6107 14.2143 22.7306C14.2207 22.8745 14.2151 23.0189 14.1976 23.1638C14.2029 23.2837 14.1967 23.4161 14.1792 23.561C14.1637 23.7539 14.1482 23.9467 14.1328 24.1396C14.1402 24.3074 14.1482 24.4873 14.1567 24.6791C14.1653 24.8709 14.1983 25.0736 14.2558 25.2873C14.3123 25.477 14.3448 25.6677 14.3533 25.8595C14.3858 26.0503 14.3943 26.2421 14.3789 26.435C14.3874 26.6268 14.3839 26.8191 14.3685 27.012C14.3498 27.1329 14.3416 27.2174 14.3437 27.2653C14.3181 27.771 14.3165 28.2755 14.3389 28.779C14.3602 29.2586 14.346 29.7517 14.2965 30.2584C14.2602 30.5242 14.2115 30.7787 14.1502 31.0216C14.1129 31.2635 14.0881 31.5169 14.0758 31.7817C14.0385 32.0236 14.0137 32.2769 14.0015 32.5417C13.9882 32.7825 13.9748 33.0234 13.9615 33.2642C13.9407 33.3372 13.9335 33.4456 13.9399 33.5895C13.9255 33.8063 13.9106 34.0112 13.8951 34.2041C13.8797 34.3969 13.8762 34.5893 13.8847 34.7811C13.8964 35.0448 13.9321 35.3075 13.9918 35.5691C14.0504 35.8068 14.1215 36.0558 14.2052 36.3164C14.2345 36.4352 14.2643 36.566 14.2947 36.7088C14.324 36.8276 14.3653 36.9459 14.4185 37.0637C14.4468 37.1585 14.499 37.2523 14.5752 37.345C14.6514 37.4377 14.7156 37.5309 14.7678 37.6247ZM23.916 22.9123C23.916 22.9123 23.904 22.9128 23.88 22.9139L23.5188 22.8939C23.4948 22.895 23.4697 22.8721 23.4436 22.8252C23.3946 22.8033 23.3816 22.7799 23.4045 22.7548C23.4023 22.7069 23.4002 22.6589 23.3981 22.611C23.4375 22.417 23.4655 22.2356 23.482 22.0667C23.4975 21.8738 23.5009 21.6815 23.4924 21.4897C23.4818 21.2499 23.4477 21.0232 23.3901 20.8096C23.3315 20.5719 23.2735 20.3463 23.2159 20.1326C23.1573 19.895 23.0993 19.6693 23.0417 19.4557C23.0071 19.217 22.9605 18.9788 22.9019 18.7412C22.9019 18.7412 22.9014 18.7292 22.9003 18.7052C22.9232 18.6802 22.9347 18.6677 22.9347 18.6677C22.9783 18.5696 23.0362 18.519 23.1081 18.5158C23.179 18.4886 23.2503 18.4735 23.3223 18.4703C23.4422 18.4649 23.5261 18.4612 23.574 18.4591C23.6689 18.4308 23.7517 18.4031 23.8226 18.376C23.9164 18.3238 24.0107 18.2835 24.1055 18.2553C24.4369 18.1445 24.7699 18.0696 25.1045 18.0307C25.462 17.9668 25.8004 18.0119 26.1195 18.1658C26.5378 18.3875 26.8545 18.7578 27.0698 19.2768C27.285 19.7957 27.3689 20.3325 27.3215 20.8872C27.273 21.4179 27.0763 21.859 26.7316 22.2107C26.5931 22.3369 26.4295 22.4403 26.2409 22.5207C26.0752 22.5762 25.9095 22.6316 25.7438 22.687C25.625 22.7163 25.5061 22.7456 25.3873 22.7749C25.2914 22.7791 25.1835 22.7839 25.0636 22.7892C24.8729 22.8217 24.6821 22.8542 24.4914 22.8867C24.2996 22.8953 24.1078 22.9038 23.916 22.9123ZM23.8608 22.4823C24.0526 22.4738 24.2445 22.4653 24.4363 22.4568C24.627 22.4243 24.8178 22.3918 25.0085 22.3593C25.0565 22.3571 25.1164 22.3545 25.1883 22.3513C25.3801 22.3428 25.5229 22.3124 25.6167 22.2602C25.7355 22.2309 25.8658 22.1891 26.0075 22.1347C26.1732 22.0793 26.3139 22.001 26.4295 21.8998C26.7055 21.6232 26.8574 21.2561 26.8851 20.7985C26.9128 20.3408 26.8332 19.8999 26.6462 19.4758C26.4831 19.0506 26.241 18.737 25.9197 18.5351C25.6746 18.4258 25.4093 18.4016 25.1237 18.4623C24.837 18.4991 24.5634 18.5593 24.3029 18.6429C24.28 18.668 24.2685 18.6805 24.2685 18.6805C24.1497 18.7098 24.0429 18.7386 23.9481 18.7668C23.8532 18.795 23.7584 18.8233 23.6635 18.8515C23.6166 18.8776 23.5333 18.8933 23.4134 18.8986C23.3894 18.8997 23.3774 18.9002 23.3774 18.9002C23.4099 19.091 23.4424 19.2817 23.4749 19.4725C23.5314 19.6622 23.5753 19.8404 23.6068 20.0072C23.6654 20.2448 23.724 20.4824 23.7826 20.7201C23.8651 20.9566 23.9123 21.2068 23.924 21.4705C23.9315 21.6384 23.9269 21.8067 23.9104 21.9756C23.9179 22.1435 23.9013 22.3124 23.8608 22.4823Z" fill="white"/>
</svg>
